Coordinates
version=1
nRows=19
nColumns=24
inDegrees=yes

Units are S.I. units (second, meters, Newtons, ...)
Angles are in degrees.

endheader
time	pelvis_tilt	pelvis_list	pelvis_rotation	pelvis_tx	pelvis_ty	pelvis_tz	hip_flexion_r	hip_adduction_r	hip_rotation_r	knee_angle_r	ankle_angle_r	subtalar_angle_r	mtp_angle_r	hip_flexion_l	hip_adduction_l	hip_rotation_l	knee_angle_l	ankle_angle_l	subtalar_angle_l	mtp_angle_l	lumbar_extension	lumbar_bending	lumbar_rotation
      1.58000000	     23.69644634	     -0.18338367	      4.53803389	      0.49559364	      0.84507559	     -0.00174894	    -31.23881133	      0.54983140	    -18.54625967	    -43.98005606	     24.31608586	     10.63621528	     50.15989627	     -5.61050330	      0.40127297	    -10.79716891	    -16.71517945	     12.23660604	      4.91117630	     47.47822198	    -36.51840839	     -1.96132525	    -12.63602744
      1.58500000	     23.61476559	      0.03940888	      4.48369683	      0.50109950	      0.84553706	     -0.00236139	    -30.41557171	     -0.05811185	    -18.71627859	    -46.12556311	     23.29805362	      9.61202182	     50.28472325	     -5.79417056	      0.67328327	    -10.58011785	    -17.13206853	     12.57852413	      4.75777809	     47.23772567	    -36.43410749	     -2.25632796	    -12.74107600
      1.59000000	     23.55058403	      0.25389929	      4.43193959	      0.50661532	      0.84606360	     -0.00296664	    -29.63182258	     -0.64478873	    -18.87493442	    -48.12204670	     22.35576963	      8.48330397	     50.32899573	     -6.03614089	      0.93448504	    -10.40631585	    -17.46422663	     12.93834430	      4.69491265	     46.98137741	    -36.36237206	     -2.53871757	    -12.84336043
      1.59500000	     23.47964402	      0.44388444	      4.45648090	      0.51209154	      0.84659137	     -0.00367651	    -28.86599391	     -1.16601093	    -19.09559610	    -49.96102853	     21.49751960	      7.27410519	     50.42360297	     -6.27060104	      1.15774099	    -10.17097030	    -17.79008518	     13.44554977	      4.87459821	     45.70571725	    -36.28677848	     -2.75090495	    -13.00240942
      1.60000000	     23.47806108	      0.62284729	      4.36858799	      0.51755034	      0.84726461	     -0.00423221	    -28.16887018	     -1.71131953	    -19.19046659	    -51.68025601	     20.83208130	      5.97826867	     50.16032204	     -6.64522831	      1.37654766	    -10.15207649	    -17.96963007	     13.75798428	      4.89155905	     45.59430335	    -36.27844798	     -3.00269417	    -13.01787448
      1.60500000	     23.44581595	      0.71938752	      4.36731293	      0.52293453	      0.84792590	     -0.00484576	    -27.45267091	     -2.10522844	    -19.28414834	    -53.21631895	     20.23742927	      4.58557550	     49.63900279	     -6.96393282	      1.49159410	    -10.05725449	    -18.16670894	     14.20611194	      4.96159506	     45.37879151	    -36.23915923	     -3.13270559	    -13.10274414
      1.61000000	     23.42369797	      0.82545804	      4.35871737	      0.52830965	      0.84859789	     -0.00545214	    -26.75927604	     -2.51230849	    -19.40010220	    -54.65721683	     20.00497258	      3.41963929	     47.55063127	     -7.30826806	      1.60402039	    -10.05817759	    -18.34722261	     14.71746339	      5.37045533	     44.19636761	    -36.20821822	     -3.26993080	    -13.16221568
      1.61500000	     23.40871052	      0.89525838	      4.39031783	      0.53357947	      0.84932414	     -0.00614080	    -26.08356090	     -2.85254975	    -19.53802434	    -55.91799506	     19.75297714	      1.98835136	     47.19838318	     -7.68114713	      1.68960403	     -9.96136888	    -18.42507236	     15.05548925	      5.44995880	     44.10614749	    -36.19180540	     -3.33982955	    -13.22047814
      1.62000000	     23.39000988	      0.88666201	      4.42559457	      0.53878646	      0.85006226	     -0.00677716	    -25.39840822	     -3.08204782	    -19.61078853	    -57.02591766	     19.62127758	      0.56564228	     46.48958866	     -8.03428237	      1.67477988	     -9.94344235	    -18.52691935	     15.52212045	      5.66720038	     43.92759238	    -36.16822909	     -3.33156209	    -13.26842770
      1.62500000	     23.38762780	      0.88841020	      4.48905089	      0.54396761	      0.85080330	     -0.00741841	    -24.75374493	     -3.30839076	    -19.75501135	    -58.02805435	     19.87395765	     -0.49431857	     44.04914249	     -8.39378583	      1.64371670	     -9.98816233	    -18.66378607	     16.02557732	      6.26680628	     43.02218889	    -36.16319122	     -3.31782972	    -13.34373537
      1.63000000	     23.35038944	      0.85695969	      4.52222554	      0.54899500	      0.85153089	     -0.00810011	    -24.03855798	     -3.51236537	    -19.83923756	    -58.91955923	     19.99384682	     -1.75002899	     43.60148955	     -8.74284153	      1.62335479	     -9.94514964	    -18.67678850	     16.34031720	      6.29143199	     42.87121688	    -36.13321911	     -3.27278692	    -13.33552055
      1.63500000	     23.34653550	      0.78890032	      4.59419728	      0.55403310	      0.85228092	     -0.00873788	    -23.38852236	     -3.63934814	    -19.96036738	    -59.66055656	     20.40981554	     -2.66519581	     41.58334732	     -9.09473693	      1.51381100	    -10.02615655	    -18.78757594	     16.86195212	      6.87580020	     42.07449309	    -36.13147737	     -3.17613997	    -13.39370808
      1.64000000	     23.30482899	      0.75594822	      4.63055669	      0.55893216	      0.85298009	     -0.00940332	    -22.67090056	     -3.82887836	    -20.07500013	    -60.33779670	     20.78524971	     -3.60809555	     41.35111309	     -9.43614039	      1.48924956	    -10.01579181	    -18.77783365	     17.11599515	      6.91232124	     42.00842251	    -36.10774637	     -3.12273588	    -13.44165063
      1.64500000	     23.27082716	      0.59663790	      4.71207857	      0.56381875	      0.85369280	     -0.01002653	    -21.97364390	     -3.82856851	    -20.16388512	    -60.83861775	     21.33955472	     -4.29039525	     39.28300216	     -9.74421486	      1.28496762	    -10.08829689	    -18.86366217	     17.65445755	      7.44751699	     41.16301353	    -36.07661338	     -2.92491663	    -13.41155474
      1.65000000	     23.17815207	      0.50054596	      4.76749398	      0.56856587	      0.85431939	     -0.01067524	    -21.18827282	     -3.92021261	    -20.26808370	    -61.29814209	     21.85672847	     -4.92771333	     39.08558393	    -10.00500518	      1.19227264	    -10.04908906	    -18.86544702	     17.90215069	      7.49092080	     41.08230450	    -36.00445405	     -2.79804048	    -13.42733819
      1.65500000	     23.13798528	      0.33838209	      4.83807176	      0.57335588	      0.85498868	     -0.01127670	    -20.48533693	     -3.90695215	    -20.37908315	    -61.59787656	     22.55994103	     -5.24725553	     37.22899562	    -10.30960064	      0.99269693	    -10.14170511	    -18.92012378	     18.39423123	      7.93041754	     40.19327330	    -35.97410613	     -2.59665893	    -13.40588574
      1.66000000	     23.01694623	      0.21028863	      4.89467118	      0.57806350	      0.85553975	     -0.01189655	    -19.67865535	     -3.94292365	    -20.49658103	    -61.84009681	     23.20626975	     -5.50155359	     37.11661755	    -10.53065242	      0.86382880	    -10.15181397	    -18.92589916	     18.65549666	      8.00174400	     40.12572777	    -35.86992641	     -2.43443320	    -13.42732584
      1.66500000	     22.93806553	      0.03188600	      4.95604524	      0.58275185	      0.85614147	     -0.01241926	    -18.92706579	     -3.88275670	    -20.59067438	    -61.94999248	     23.97076698	     -5.53255080	     35.57771965	    -10.78964370	      0.65172393	    -10.22232020	    -18.95625035	     19.05175071	      8.42527493	     39.31346008	    -35.80582125	     -2.22638768	    -13.42652339
      1.67000000	     22.83571915	     -0.11436651	      4.99095996	      0.58741448	      0.85667635	     -0.01298276	    -18.14997055	     -3.87884026	    -20.70581492	    -61.98553270	     24.66970528	     -5.42499649	     35.54568241	    -11.03817947	      0.50811246	    -10.25504602	    -18.93899175	     19.34555446	      8.45563988	     39.26244794	    -35.71898207	     -2.05253169	    -13.40128880
